<?xml version="1.0" encoding="utf-8"?>
<!-- Generator: Adobe Illustrator 25.0.1, SVG Export Plug-In . SVG Version: 6.00 Build 0)  -->
<svg version="1.1" id="分離模式" xmlns="http://www.w3.org/2000/svg" xmlns:xlink="http://www.w3.org/1999/xlink" x="0px"
	 y="0px" viewBox="0 0 190 97.8" style="enable-background:new 0 0 190 97.8;" xml:space="preserve">
<style type="text/css">
	.st0{fill:#FFB548;}
	.st1{fill:#00ADBB;}
	.st2{fill:#C2E76B;}
	.st3{fill:none;stroke:#C2E76B;stroke-width:0.382;stroke-miterlimit:10;}
	.st4{fill:#5E5D5C;}
</style>
<g>
	<path class="st0" d="M117.1,21.2c-13.5,0-24.5,10.9-24.5,24.4c0,13.5,11,24.4,24.5,24.4c13.5,0,24.5-10.9,24.5-24.4
		C141.6,32.1,130.6,21.2,117.1,21.2 M117.2,60.9c-8.5,0-15.3-6.9-15.3-15.3c0-8.5,6.9-15.3,15.3-15.3c8.5,0,15.4,6.9,15.4,15.3
		C132.6,54,125.7,60.9,117.2,60.9"/>
	<path class="st1" d="M39.9,24.5c-1.9-1.2-4.8-2.4-7.5-2.9c-2.7-0.6-5.3-0.6-8.1-0.3c-2.7,0.3-5.4,1.1-7.9,2.4
		c-2.5,1.3-4.8,3-6.9,5.1c-2.3,2.5-4,5.3-5.1,8.3c-1.1,3-1.6,6.1-1.5,9.2c0.1,3.1,0.9,6.5,2.1,9.2c1.3,2.9,3.2,5.6,5.7,7.9
		c2.5,2.3,5.3,4,8.2,5.1c3,1.1,6.2,1.6,9.3,1.5c3.1-0.1,6.3-0.8,9.2-2.1c2.9-1.3,5.5-3.2,7.9-5.7c1.7-1.8,3.1-3.8,4.1-5.9
		c1-2.2,1.8-4.4,2.1-6.7c0.4-2.3,0.4-4.7,0.2-7c-0.3-2.3-0.8-4.3-1.7-6.5c-0.2-0.5-1-2.2-1.3-2.8l-24.6,12h18.8
		c0.1,1.8-0.5,4.4-1.2,6c-1,2.3-2.2,3.8-3.5,5.1c-1.4,1.4-2.9,2.4-4.7,3.1c-1.7,0.7-3.8,1.2-5.6,1.2c-2.4,0-4-0.3-5.8-1
		c-1.8-0.6-3.6-1.8-5.1-3.2c-1.5-1.4-2.7-3.3-3.4-4.8c-0.8-1.7-1.2-3.2-1.4-6c-0.1-1.9,0.3-3.9,1-5.7c0.7-1.8,1.9-3.9,3.3-5.3
		c7.6-7.6,16.6-3.6,16.6-3.6C34.7,28.9,36,27.3,39.9,24.5"/>
	<path class="st1" d="M94.3,22.2c0,0-1.4,1.3-3.2,3.7c-1.9,2.5-2.7,4.3-2.7,4.3H66.8v11h19.7v8.6H66.8v11.1h21.6
		c0,0,1.1,2.3,2.9,4.5c2.1,2.7,3,3.4,3,3.4H57.2V22.2H94.3z"/>
	<path class="st0" d="M175.6,35.3L175.6,35.3c-0.1-0.8-0.2-1.8-0.7-2.6c-0.4-0.7-1.1-1.5-2.1-2.1c-0.9-0.5-2-0.9-3.1-1.1
		c-1.1-0.2-2.3-0.3-3.6-0.3c-0.9,0-1.4,0-2.3,0.2c-0.8,0.2-1.9,0.4-2.8,0.9c-1,0.5-1.6,1-2,1.3c-0.7,0.7-1.3,1.9-1.3,2.9
		c0,0.9,0.5,1.9,1.4,2.7c0.5,0.5,1.3,1,2.3,1.5c1,0.5,2.6,1,4.4,1.4c2.6,0.6,4.3,0.8,7,1.4c0.9,0.2,2,0.4,3.5,0.9
		c2.2,0.7,3,1.2,4.5,2.2c1.6,1,2.9,2.3,4.1,4c1.1,1.7,1.9,3.8,1.9,6.5c0,2.1-0.2,4.1-1.1,5.9c-0.9,1.8-1.9,3.4-3.6,4.7
		c-1.7,1.3-3.8,2.4-6.2,3.1c-2.5,0.7-5.4,1.1-8.6,1.1c-2.6,0-5.2-0.3-7.7-1c-2.5-0.6-4.7-1.6-6.6-3c-1.9-1.3-3.4-3.1-4.5-5.2
		c-0.8-1.5-1.2-3.5-1.4-5.6c-0.1-1-0.1-2,0-3.5c0.2-1.4,0.5-2.4,0.5-2.4s1.5,1.4,3.9,2.8c2.9,1.7,5.3,2.2,5.3,2.2c0,0.6,0,2,0.6,3.1
		c0.6,1.1,1.4,2.1,2.4,2.8c1,0.7,2.3,1.2,3.6,1.5c1.3,0.3,3,0.5,4.4,0.5c0.9,0,1.9-0.1,3-0.2c1.1-0.1,2.1-0.4,3-0.9
		c0.9-0.4,1.7-1,2.3-1.8c0.6-0.8,1.1-1.9,1.1-3.1c0-1.1-0.5-2.4-1.4-3.2c-0.8-0.8-1.9-1.2-3.3-1.8c-1.4-0.5-2.9-1-4.6-1.4
		c-1.7-0.4-3-0.7-5.2-1.3c-1.8-0.5-3.5-1-5.2-1.6c-1.7-0.6-3.2-1.4-4.6-2.4c-1.4-1-2.4-2.2-3.3-3.7c-0.8-1.5-1.2-3.3-1.2-5.4
		c0-2.4,0.5-4.5,1.6-6.2c1-1.8,2.4-3.2,4.1-4.4c1.7-1.2,3.6-2,5.8-2.6c2.2-0.6,4.3-0.8,6.5-0.8c2.5,0,4.4,0.3,6.8,0.8
		c2.3,0.5,4.3,1.3,6.1,2.6c1.8,1.2,3.7,2.9,4.8,4.7c0.5,1,1,2.1,1.2,3.3c0,0,0.6,2.2,0.4,5c-0.1,1-0.2,1.7-0.2,1.7s-1.7-1.3-4.9-2.6
		C178.3,35.7,175.6,35.3,175.6,35.3"/>
	<path class="st2" d="M129.2,45.6c0,6.7-5.4,12.2-12.2,12.2c-6.7,0-12.2-5.4-12.2-12.2c0-6.7,5.4-12.2,12.2-12.2
		C123.8,33.4,129.2,38.8,129.2,45.6"/>
	<path class="st3" d="M129.2,45.6c0,6.7-5.4,12.2-12.2,12.2c-6.7,0-12.2-5.4-12.2-12.2c0-6.7,5.4-12.2,12.2-12.2
		C123.8,33.4,129.2,38.8,129.2,45.6z"/>
	<rect x="98.9" y="1.8" class="st0" width="7.4" height="2.7"/>
	<polygon class="st0" points="98.9,6.5 106.2,6.5 106.2,9.3 98.9,9.3 	"/>
	<path class="st0" d="M98.9,12.4h4.3c2.7,0,3.6-1.1,4.2-1.7l5.4-5.2h4.2l-8,7.6c-1.6,1.5-2.9,2.5-5.7,2.5h-4.4V12.4"/>
	<rect x="111.9" y="1.8" class="st0" width="2.2" height="3"/>
	<rect x="114.8" y="1.8" class="st0" width="2.2" height="3"/>
	<path class="st0" d="M118.6,4.2h10.9V1.3h3.3v2.9h3.2v2.6h-3.2v8.8h-3.3V8.4c0,0-4.6,4.6-5.8,5.5c-1.1,1-2.2,1.8-5.1,1.8h-2.5V13
		h2.4c1.6,0,2.6-0.9,3.2-1.5l4.7-4.6h-7.8V4.2"/>
	<path class="st0" d="M139.1,2.1h14.5v2.3l-4.5,4.4l6.9,6.9h-4.4l-4.8-4.8l-3.1,2.9c-1.5,1.4-3.1,1.9-4.6,1.9h-2.6V13h1.9
		c1.5,0,2-0.6,2.5-1l7.7-7.3h-9.7V2.1"/>
	<path class="st0" d="M169.4,7.3c0,0.1-0.1,0.1-0.2,0.1c-0.4,1.1-1.2,2.3-2,3.1c-0.3-0.2-0.8-0.5-1.1-0.6c0.6-0.5,1.2-1.3,1.4-1.9
		h-6.1V6.8h6.8l0.1-0.1L169.4,7.3z M165.8,9.1c0,0.1-0.1,0.2-0.3,0.2c-0.2,2.1-1,4.3-2.9,5.4c-0.3-0.2-0.7-0.6-1-0.8
		c1.8-1,2.5-2.9,2.7-5L165.8,9.1z"/>
	<path class="st0" d="M170,9c0.9,0.2,1.8,0.6,2.4,0.9l-0.5,1c-0.6-0.3-1.6-0.7-2.4-0.9L170,9z M170.3,13.5c2.9-0.9,5-2.5,6.3-5.3
		c0.2,0.2,0.8,0.6,1,0.8c-1.3,2.7-3.6,4.5-6.3,5.5c0,0.1,0,0.2-0.2,0.3L170.3,13.5z M171.1,6.7c0.8,0.2,1.8,0.6,2.5,0.9l-0.6,1
		c-0.7-0.4-1.5-0.8-2.4-1L171.1,6.7z M175.5,6.4c0.4,0.3,0.9,0.9,1.1,1.3L176,8.1c-0.2-0.4-0.7-1-1.1-1.4L175.5,6.4z M176.9,5.8
		c0.4,0.4,0.9,0.9,1.1,1.3l-0.6,0.4c-0.2-0.4-0.7-1-1.1-1.3L176.9,5.8z"/>
	<path class="st0" d="M186.1,7.3c0,0.1-0.1,0.1-0.2,0.1c-0.4,1.1-1.2,2.3-2,3.1c-0.2-0.2-0.7-0.5-1.1-0.6c0.6-0.5,1.2-1.3,1.4-1.9
		h-6.1V6.8h6.8l0.1-0.1L186.1,7.3z M182.5,9.1c0,0.1-0.1,0.2-0.3,0.2c-0.2,2.1-1,4.3-2.9,5.4c-0.3-0.2-0.7-0.6-1-0.8
		c1.8-1,2.5-2.9,2.7-5L182.5,9.1z"/>
	<path class="st4" d="M20.1,95.3c-3.7-3.2-6.2-6.7-7.2-10.4l-0.3,1c-1.5,4.3-4.3,7.7-8.4,10.2l-1.3-1.7c4.9-2.5,7.9-6.8,8.9-12.9
		H3.5v-2.1h8.3l0.1-1.2v-3.5h2v3.5l0,1.2h8.3v2.1h-8.1c0.1,0.9,0.2,1.8,0.4,2.5c1.1,3.9,3.9,7.5,8.4,10.8l-1.6,1.5L20.1,95.3z"/>
	<path class="st4" d="M26.7,82.1h-2.4V80h2.4v-5.5h1.9V80h4.2v-5.3h1.9V80h4.9v-5.3h1.9V80h2.5v2.1h-2.5v7.4c0,0.7-0.3,1-0.9,1h-6.9
		c-0.6,0-0.9-0.3-0.9-1v-7.4h-4.2v11c0,0.4,0.2,0.5,0.5,0.5h14.5v2.1H27.7c-0.6,0-0.9-0.4-0.9-1V82.1z M39.4,88.4
		c0.2,0,0.3-0.1,0.3-0.3v-6h-4.9v6c0,0.2,0.1,0.3,0.3,0.3H39.4z"/>
	<path class="st4" d="M58.6,86.6l-1.5-1.8h-2.5L53,86.7v1.8c0,3.3-1.8,6.3-4.5,7.8l-1.3-1.7c1.6-0.7,4-2.6,4-6.2
		c-0.3,0.2-2.4,1.9-4.6,2.9l-0.9-1.9l1.1-0.4c1.9-0.9,3.7-2.3,5.5-4.2h-5c-0.2,0-0.3-0.1-0.3-0.3v-9c0-0.2,0.1-0.3,0.3-0.3h16.9
		c0.2,0,0.3,0.1,0.3,0.3v9c0,0.2-0.1,0.3-0.3,0.3h-4.8c1.8,2,3.9,3.6,6.3,4.8l-1.3,1.6c-1.7-1-3.1-1.9-4-2.8v7.9h-1.8V86.6z
		 M54.8,79.1v-2h-6c-0.1,0-0.1,0-0.1,0.1v1.9H54.8z M54.8,82.9V81h-6.1v1.8c0,0.1,0,0.1,0.1,0.1H54.8z M56.6,77.1v2h6v-1.9
		c0-0.1,0-0.1-0.1-0.1H56.6z M56.6,81v1.9h5.9l0.1-0.1V81H56.6z"/>
	<path class="st4" d="M86.3,96.2c-4-0.7-7.1-2.7-9.1-5.9l-0.3,0.5c-1.5,2.3-4.5,4.1-8.8,5.4l-0.7-2c4.3-1,7.1-2.6,8.3-4.7v0h-8.3v-2
		h2.1v-5.7c0-0.5,0.2-0.7,0.6-0.7h6.3v-1.6H78v1.6h6.1c0.4,0,0.6,0.2,0.6,0.7v5.7h2v2h-8l0,0.1c1.5,2.5,4.2,4,8.2,4.7L86.3,96.2z
		 M80.4,78.2H74v1.6h-1.8v-1.6h-4.7v-2h4.7v-1.8H74v1.8h6.4v-1.8h1.8v1.8h4.5v2h-4.5v1.6h-1.8V78.2z M76.2,87.5v-4.4h-4.8
		c-0.2,0-0.3,0.1-0.3,0.3v4.1H76.2z M78,83.1v4.4h5v-4.1c0-0.2-0.1-0.3-0.3-0.3H78z"/>
	<path class="st4" d="M92.2,95.1v1h-1.9V75.8c0-0.5,0.2-0.7,0.6-0.7H106c0.5,0,0.7,0.3,0.7,0.7v20.3h-1.9v-1H92.2z M104.8,77.5
		c0-0.2-0.1-0.3-0.3-0.3H92.5c-0.2,0-0.3,0.1-0.3,0.3v6.6h12.6V77.5z M92.2,93h12.6v-6.8H92.2V93z"/>
	<path class="st4" d="M113.1,92.7h-3v-1.8h3v-1.7h-2.4c-0.1,0-0.2-0.1-0.2-0.3v-9.1c0-0.2,0.1-0.3,0.2-0.3h2.4v-1.7h-2.8v-1.8h2.8
		v-1.8h1.6v1.8h2.4v1.8h-2.4v1.7h2.2c0.2,0,0.3,0.1,0.3,0.3v9.1c0,0.2-0.1,0.3-0.3,0.3h-2.2v1.7h2.7v1.8h-2.7v3.5h-1.6V92.7z
		 M112.1,83.5h3.4v-2l-0.1,0h-3.3l-0.1,0V83.5z M115.6,85.3h-3.4v2l0.1,0.1h3.3c0.1,0,0.1,0,0.1-0.1V85.3z M124,93.8h-6.2v-1.8h2.1
		v-2.2h-1.3v-1.6h5.5v-1.3h-5.2c-0.1,0-0.2-0.1-0.2-0.3V82c0-0.2,0.1-0.2,0.2-0.2h9.8c0.1,0,0.2,0.1,0.2,0.2v4.5
		c0,0.2-0.1,0.3-0.2,0.3h-3v1.3h3.4v1.6h-3.4v2.2h4v1.8h-4v2.5H124V93.8z M121.6,78.8l0.3-1.4H119v-1.8h3.2l0.3-1.4l1.6,0.4l-0.2,1
		h4c0.3,0,0.4,0.2,0.4,0.5v2.6h1.3v1.8h-11.6v-1.8H121.6z M127.1,83.4h-6.8c-0.1,0-0.1,0-0.1,0.1v1.5l0.1,0.1h6.8l0.1-0.1
		L127.1,83.4L127.1,83.4z M124,89.8h-2.5v2.2h2.5V89.8z M123.3,78.8h3.4v-1.1c0-0.2-0.1-0.2-0.2-0.2h-2.9L123.3,78.8z"/>
	<path class="st4" d="M145,94.4h-2.9c-0.4-0.5-0.8-0.9-1.3-1.6c-1.2,1.3-2.7,1.9-4.4,1.9c-3.3,0-5-2.4-5-5.1c0-2.4,1.2-4.1,3-5.3
		l0-0.1c-0.8-1.1-1.3-2.5-1.3-3.8c0-2.3,1.4-4.5,4.2-4.5c2.1,0,3.7,1.5,3.7,3.9c0,1.9-0.9,3.4-3.3,4.8v0.1c1.1,1.5,2.5,3.4,3.5,4.6
		c0.7-1.3,1.2-3.1,1.4-5h2.2c-0.4,2.7-1.1,5.1-2.3,6.7L145,94.4z M139.6,91.2c-1-1.3-2.6-3.4-4.1-5.4c-0.8,0.6-1.8,1.7-1.8,3.4
		c0,1.9,1.2,3.4,3,3.4C138.2,92.6,139.1,91.8,139.6,91.2 M135.3,80.2c0,1.2,0.5,2.1,1.1,3.1c1.5-1,2.3-1.9,2.3-3.3
		c0-1-0.5-2.2-1.7-2.2C135.9,77.8,135.3,79,135.3,80.2"/>
	<path class="st4" d="M145.8,94.6c2.2-1.1,2.6-1.9,2.8-3.2v-4.4c0-0.2-0.1-0.2-0.2-0.2h-2v-2h3.6c0.3,0,0.5,0.2,0.5,0.5v5.6
		c0.1,0.5,0.3,1,0.7,1.5c0.9,1.4,2.6,1.8,4.3,1.8c3,0,7.9-0.2,10-0.3l-0.5,2.3l-9.3,0c-3,0-5-1-6-2.9c-0.3,1.2-1.9,2.8-3,3.3
		L145.8,94.6z M149.6,83.2c-1.3-1.1-2.4-1.9-3.3-2.4l1-1.7c1,0.5,2.2,1.4,3.4,2.4L149.6,83.2z M150,78.5c-1.3-1.1-2.4-1.9-3.3-2.4
		l1-1.7c1,0.5,2.1,1.3,3.4,2.4L150,78.5z M154.5,82.4l-0.2,1.8c-0.3,3.4-1.3,6.6-1.9,7.5l-1.7-0.4c1.5-3.3,2.3-7,2.3-11.1v-1.9h-1.5
		v-1.9h2.5v-2.2h1.7v2.2h2.2v1.9h-3.4v2.1h3.1c0.3,0,0.4,0.2,0.4,0.4c-0.1,6-0.4,9.7-0.9,10.9c-0.3,0.7-0.6,1-1.6,1
		c-0.5,0-1.2-0.1-2.1-0.4l0.2-1.9c0.8,0.3,1.4,0.4,1.8,0.4c0.2,0,0.4,0,0.5-0.5c0.3-1,0.5-3.7,0.6-8.1c0,0-0.1-0.1-0.2-0.1H154.5z
		 M160.2,78c-0.4,1-0.9,1.9-1.5,2.6l-1.4-1.1c1-1.3,1.7-3.1,2-5.2l1.6,0.2l-0.3,1.7h4.9V78H160.2z M163.9,87.2
		c0.3,0.9,0.4,1.8,0.4,2.5c0,1.5-0.8,3.6-2.8,3.6c-0.9,0-1.8-0.4-2.8-1l0.3-1.9c0.3,0.3,1.3,1,2.2,1c0.9,0,1.3-1,1.3-1.4
		c0-1.3-0.3-2.2-0.4-2.8h-3.5v-1.8h2.7l-0.6-0.9c-0.2-0.3-0.2-0.3-0.2-0.4c0-0.1,0-0.1,0.1-0.2l2-2.4v-0.1l-0.1,0h-2.8v-1.8h4.9
		l0.8,1l-2.7,3.3c-0.1,0.1-0.1,0.2-0.1,0.3c0,0.1,0,0.3,0.2,0.4l0.5,0.8h2.6v1.8H163.9z"/>
	<path class="st4" d="M183.9,82.3v-1h-3.1v-1.7h3.1v-0.8h-3.1v-1.6h3.1v-0.8c0-0.1-0.1-0.2-0.2-0.2h-2.8v-1.7h4.3
		c0.3,0,0.4,0.1,0.4,0.4v7.2h0.1l1.5,0.8c-0.1,1.3-0.3,2.8-0.8,4.6l-1.6-0.5c0.4-1.4,0.5-2.4,0.5-2.7c0-0.2-0.1-0.3-0.2-0.3h-15.7
		c-0.1,0-0.2,0.1-0.2,0.2v3h-1.7v-4.7c0-0.2,0.1-0.3,0.3-0.3h1v-7.2c0-0.5,0.1-0.5,1-0.5c1.4,0,2.7-0.2,3.9-0.5l0.6,1.7
		c-1.1,0.3-2.4,0.5-3.8,0.5c-0.1,0-0.1,0.1-0.1,0.2v0.7h3v1.6h-3v0.9h3.1v1.7h-3.1v0.9h8.4l-1.4-1.2c-0.7,0.5-1.6,0.9-2.6,1.1
		l-0.6-1.6c0.6-0.1,1.2-0.3,1.8-0.6l-0.9-0.6l0.7-1.1l-1,0.4l-0.7-1.5c0.6-0.2,1.2-0.5,1.8-0.8l-1.1-0.6l0.8-1.4l1.8,1.1l1.3-1.2
		l1,1.2l-0.9,0.9l1.1,0.7l-0.9,1.4l0.8,1.1l-0.9,0.7l1.1,1l-0.9,1.1H183.9z M173.5,93.6c1.1,0.7,2,1,2.9,1c0.3,0,1.5-0.2,1.5-1.5
		c0-0.4-0.1-0.8-0.2-1.3h-9.3v-1.9h8.4c-0.3-0.5-0.7-1-1.1-1.5h1l3-1.5H172v-1.8h9.7l1.3,2.1l-4.5,2.2l0.3,0.5h7.3v1.9h-6.5
		c0.2,0.7,0.2,0.8,0.2,1.4c0,2.8-2.1,3.4-3.2,3.4c-1.2,0-2.3-0.4-3.4-1L173.5,93.6z M176.1,78.1l1.4,1.1l1.3-1l-1.3-0.9L176.1,78.1z
		"/>
</g>
</svg>
